# xmcd CD database file
#
# Track frame offsets:
#	150
#	13468
#	27405
#	40613
#	56373
#	69162
#	81552
#	94361
#	104008
#	116016
#	130240
#	145809
#	159643
#	173051
#	185448
#	195494
#	209448
#	221872
#	232992
#	247357
#	261295
#	274306
#	287433
#	302301
#	315936
#
# Disc length: 4409 seconds
#
# Revision: 0
# Processed by: cddbd v1.4PL0 Copyright (c) Steve Scherf et al.
# Submitted via: CDex 1.50Beta2
#
DISCID=74113719
DTITLE=Billie Holiday - All of Me
DYEAR=1997
DGENRE=Jazz
TTITLE0=Let's Do It
TTITLE1=The Man I Love
TTITLE2=God Bless the Child
TTITLE3=I'll Be Seeing You
TTITLE4=Falling in Love Again
TTITLE5=The Very Thought of You
TTITLE6=Them There Eyes
TTITLE7=I'm Gonna Lock My Heart
TTITLE8=He's Funny That Way
TTITLE9=As Time Goes By
TTITLE10=I Cover the Waterfront
TTITLE11=Time on My Hands
TTITLE12=You're Just a No Account
TTITLE13=You're a Lucky Guy
TTITLE14=Trav'lin All Alone
TTITLE15=Strange Fruit
TTITLE16=Dream of Life
TTITLE17=Big Stuff
TTITLE18=Any Old Time
TTITLE19=I Love My Man
TTITLE20=You Go To My Head
TTITLE21=Laughing at Time
TTITLE22=Yesterdays
TTITLE23=All of Me
TTITLE24=Embraceable You
EXTD=YEAR: 1997
EXTT0=
EXTT1=
EXTT2=
EXTT3=
EXTT4=
EXTT5=
EXTT6=
EXTT7=
EXTT8=
EXTT9=
EXTT10=
EXTT11=
EXTT12=
EXTT13=
EXTT14=
EXTT15=
EXTT16=
EXTT17=
EXTT18=
EXTT19=
EXTT20=
EXTT21=
EXTT22=
EXTT23=
EXTT24=
PLAYORDER=
